# xmcd
#
# Track frame offsets:
#	150
#	22356
#	38157
#	54860
#	70924
#	89876
#	108918
#	126203
#	149097
#	174228
#	197102
#	214741
#
# Disc length: 3090 seconds
#
# Revision: 1
# Processed by: cddbd v1.5.2PL0 Copyright (c) Steve Scherf et al.
# Submitted via: audiograbber 1.83.01
#
DISCID=b70c100c
DTITLE=Wynonna and The Big Noise - Wynonna and The Big Noise
DYEAR=2016
DGENRE=Country Rock
TTITLE0=Ain't No Thing
TTITLE1=Cool Ya'
TTITLE2=Things That I Lean On
TTITLE3=You Make My Heart Beat Too Fast
TTITLE4=Staying in Love
TTITLE5=Keeps Me Alive
TTITLE6=Jesus and a Jukebox
TTITLE7=I Can See Everything
TTITLE8=Something You Can't Live Without
TTITLE9=You Are So Beautiful
TTITLE10=Every Ending (Is a New Beginning)
TTITLE11=Choose to Believe
EXTD=
EXTT0=
EXTT1=
EXTT2=
EXTT3=
EXTT4=
EXTT5=
EXTT6=
EXTT7=
EXTT8=
EXTT9=
EXTT10=
EXTT11=
PLAYORDER=
